<svg version="1.1" id="Layer_1" xmlns="http://www.w3.org/2000/svg" xmlns:xlink="http://www.w3.org/1999/xlink" xml:space="preserve" viewBox="0 87.98 448.02 272.03">
<g transform="translate(0 -1020.36)" shape-rendering="auto" image-rendering="auto" color-rendering="auto" color-interpolation="sRGB">
	<path style="fill:#5A3392;" d="M115.969,1108.36C51.831,1108.36,0,1160.389,0,1224.672v39.469   c0,64.285,51.831,116.219,115.969,116.219H332c64.138,0,116-51.934,116-116.219v-39.469c0-64.283-51.862-116.313-116-116.313   H115.969L115.969,1108.36z M136.656,1180.391h174.781c31.034,0,56.594,24.367,56.594,54.688v18.656   c0,30.322-25.56,54.688-56.594,54.688H136.656c-31.034,0-56.594-24.367-56.594-54.688v-18.656   C80.062,1204.756,105.622,1180.391,136.656,1180.391L136.656,1180.391z"/>
	<path style="fill:#29A3EC;" d="M115.969,1124.422c-55.526,0-99.906,44.527-99.906,100.25v39.469   c0,55.721,44.38,100.281,99.906,100.281H332c55.526,0,100.031-44.561,100.031-100.281v-39.469   c0-55.721-44.505-100.25-100.031-100.25H115.969L115.969,1124.422z M136.656,1180.391h174.781   c31.034,0,56.594,24.367,56.594,54.688v18.656c0,30.322-25.56,54.688-56.594,54.688H136.656c-31.034,0-56.594-24.367-56.594-54.688   v-18.656C80.062,1204.756,105.622,1180.391,136.656,1180.391L136.656,1180.391z"/>
	<path style="fill:#3CDEF6;" d="M120.125,1132.422c-53.393,0-96.063,41.588-96.063,93.594v36.813   c0,52.006,42.67,93.594,96.063,93.594h207.719c53.393,0,96.219-41.588,96.219-93.594v-36.813c0-52.006-42.826-93.594-96.219-93.594   H120.125z M136.656,1180.391h174.781c31.034,0,56.594,24.367,56.594,54.688v18.656c0,30.322-25.56,54.688-56.594,54.688H136.656   c-31.034,0-56.594-24.367-56.594-54.688v-18.656C80.062,1204.756,105.622,1180.391,136.656,1180.391L136.656,1180.391z"/>
	<g>
		<path style="fill:#FFFFFF;" d="M210.031,1328.409c-4.418-0.063-8.051,3.469-8.113,7.887s3.469,8.051,7.887,8.113    c0.075,0.002,0.151,0.002,0.226,0h28c4.418,0.063,8.051-3.469,8.113-7.887c0.062-4.418-3.469-8.051-7.887-8.113    c-0.075-0.002-0.151-0.002-0.226,0H210.031z"/>
		<path style="fill:#FFFFFF;" d="M292.031,1328.409c-4.418-0.063-8.051,3.469-8.113,7.887s3.469,8.051,7.887,8.113    c0.075,0.002,0.151,0.002,0.226,0h27.75c4.418,0.063,8.051-3.469,8.113-7.887c0.063-4.418-3.469-8.051-7.887-8.113    c-0.075-0.002-0.151-0.002-0.226,0H292.031z"/>
		<path style="fill:#FFFFFF;" d="M128.25,1328.409c-4.418-0.063-8.051,3.469-8.113,7.887s3.469,8.051,7.887,8.113    c0.075,0.002,0.151,0.002,0.226,0h27.781c4.418,0.063,8.051-3.469,8.113-7.887s-3.469-8.051-7.887-8.113    c-0.075-0.002-0.151-0.002-0.226,0H128.25z"/>
		<path style="fill:#FFFFFF;" d="M47.906,1220.409c-4.406,0.068-7.927,3.688-7.875,8.094v31.781    c-0.062,4.418,3.469,8.051,7.887,8.113c4.418,0.063,8.051-3.469,8.113-7.887c0.001-0.076,0.001-0.15,0-0.227v-31.781    c0.052-4.418-3.488-8.043-7.906-8.094C48.052,1220.407,47.979,1220.407,47.906,1220.409z"/>
		<path style="fill:#FFFFFF;" d="M399.906,1220.409c-4.406,0.068-7.927,3.688-7.875,8.094v31.781    c-0.062,4.418,3.469,8.051,7.887,8.113s8.051-3.469,8.113-7.887c0.001-0.076,0.001-0.15,0-0.227v-31.781    c0.052-4.418-3.488-8.043-7.906-8.094C400.052,1220.407,399.979,1220.407,399.906,1220.409z"/>
		<path style="fill:#FFFFFF;" d="M291.219,1144.409c-4.418,0.221-7.821,3.982-7.6,8.4c0.221,4.42,3.983,7.822,8.401,7.6    c0.004,0,0.007,0,0.011,0h27.75c4.418,0.063,8.051-3.469,8.113-7.887s-3.469-8.051-7.887-8.113c-0.075-0.002-0.151-0.002-0.226,0    h-27.75C291.761,1144.395,291.489,1144.395,291.219,1144.409z"/>
		<path style="fill:#FFFFFF;" d="M127.438,1144.409c-4.418,0.221-7.821,3.982-7.6,8.4c0.221,4.42,3.983,7.822,8.401,7.6    c0.004,0,0.007,0,0.011,0h27.781c4.418,0.063,8.051-3.469,8.113-7.887s-3.469-8.051-7.887-8.113c-0.075-0.002-0.151-0.002-0.226,0    H128.25C127.979,1144.395,127.708,1144.395,127.438,1144.409z"/>
		<path style="fill:#FFFFFF;" d="M55.5,1292.315c-4.411,0.258-7.779,4.041-7.521,8.453c0.077,1.322,0.482,2.605,1.178,3.734    c6.645,11.074,15.673,20.105,26.75,26.75c3.719,2.387,8.668,1.307,11.055-2.41c2.387-3.719,1.307-8.668-2.411-11.057    c-0.139-0.088-0.281-0.174-0.425-0.254c-8.923-5.352-15.895-12.326-21.25-21.25c-1.514-2.607-4.365-4.141-7.375-3.969V1292.315z"/>
		<path style="fill:#FFFFFF;" d="M80.25,1156.346c-1.531-0.029-3.039,0.381-4.344,1.184c-11.091,6.645-20.115,15.672-26.75,26.75    c-2.29,3.785-1.078,8.709,2.707,11c3.785,2.289,8.709,1.078,10.999-2.707c0.015-0.025,0.03-0.049,0.044-0.074    c5.341-8.918,12.286-15.898,21.219-21.25c3.815-2.23,5.099-7.131,2.869-10.945c-1.405-2.404-3.96-3.904-6.744-3.961V1156.346z"/>
		<path style="fill:#FFFFFF;" d="M391.5,1292.315c-2.63,0.201-4.991,1.686-6.313,3.969c-5.368,8.928-12.368,15.896-21.281,21.25    c-3.789,2.277-5.014,7.197-2.735,10.984c2.278,3.789,7.196,5.014,10.985,2.736l0,0c11.063-6.646,20.063-15.65,26.719-26.721    c2.34-3.748,1.199-8.684-2.549-11.023c-1.441-0.9-3.132-1.318-4.826-1.193V1292.315z"/>
		<path style="fill:#FFFFFF;" d="M367.594,1156.346c-4.415,0.186-7.844,3.914-7.659,8.328c0.125,2.992,1.911,5.664,4.628,6.924    c10.542,5.057,14.77,11.199,20.594,20.906c2.14,3.865,7.009,5.266,10.875,3.125c3.866-2.141,5.265-7.008,3.125-10.875    c-0.088-0.158-0.182-0.316-0.281-0.469c-6.176-10.293-13.442-20.395-27.406-27.094c-1.2-0.604-2.533-0.895-3.875-0.848V1156.346z"/>
		<path style="fill:#FFFFFF;" d="M184.031,1144.409v16h79.75v-16H184.031z"/>
	</g>
	<path style="fill:#29A3EC;" d="M132.781,1176.422c-32.405,0-59.094,25.885-59.094,58.094v19.813   c0,32.207,26.688,58.094,59.094,58.094h182.531c32.406,0,59.094-25.887,59.094-58.094v-19.813   c0-32.207-26.688-58.094-59.094-58.094H132.781z M136.656,1180.391h174.781c31.034,0,56.594,24.367,56.594,54.688v18.656   c0,30.322-25.56,54.688-56.594,54.688H136.656c-31.034,0-56.594-24.367-56.594-54.688v-18.656   C80.063,1204.756,105.622,1180.391,136.656,1180.391z"/>
	<g>
		<path style="fill:#FFFFFF;" d="M216.031,1124.409v66h16v-66H216.031z"/>
		<path style="fill:#FFFFFF;" d="M256.031,1124.409v66h16v-66H256.031z"/>
		<path style="fill:#FFFFFF;" d="M176.031,1124.409v63.783h16v-63.783H176.031z"/>
	</g>
	<path style="fill:#5A3392;" d="M136.647,1180.397c-31.034,0-56.575,24.363-56.575,54.686v18.662   c0,30.322,25.541,54.686,56.575,54.686H311.45c31.034,0,56.575-24.363,56.575-54.686v-18.662c0-30.322-25.541-54.686-56.575-54.686   H136.647z M136.647,1196.342H311.45c22.783,0,40.512,17.355,40.512,38.738v18.662c0,21.385-17.728,38.621-40.512,38.621H136.647   c-22.783,0-40.63-17.236-40.63-38.621v-18.662C96.017,1213.696,113.863,1196.342,136.647,1196.342z"/>
</g>
</svg>